<svg width="1000" height="1000" viewBox="0 0 1000 1000" fill="none" xmlns="http://www.w3.org/2000/svg">
<g clip-path="url(#clip0)">
<path d="M220.58 781.02C220.58 775.21 218.5 770.34 214.33 766.4C210.16 762.47 202.82 759.12 192.31 756.36C179.28 753.13 169.1 748.38 161.8 742.09C154.49 735.81 150.84 727.91 150.84 718.4C150.84 708.36 154.77 699.99 162.64 693.3C170.51 686.61 180.72 683.26 193.29 683.26C206.79 683.26 217.55 687.09 225.57 694.75C233.58 702.41 237.47 711.35 237.24 721.57L236.98 722.1H220.42C220.42 714.82 217.88 708.8 212.8 704.05C207.72 699.3 201.22 696.92 193.29 696.92C185.19 696.92 178.98 698.89 174.66 702.82C170.35 706.75 168.19 711.86 168.19 718.14C168.19 723.72 170.55 728.37 175.28 732.1C180.01 735.83 187.68 739.1 198.31 741.92C211.23 745.27 221.06 750.2 227.81 756.71C234.56 763.23 237.94 771.27 237.94 780.84C237.94 791.17 233.87 799.48 225.74 805.76C217.61 812.04 207 815.18 193.9 815.18C181.51 815.18 170.58 811.72 161.1 804.79C151.62 797.86 147.02 788.59 147.32 776.96L147.5 776.43H164.06C164.06 784.47 167.11 790.68 173.22 795.06C179.33 799.43 186.22 801.62 193.92 801.62C202.14 801.62 208.64 799.77 213.43 796.07C218.19 792.38 220.58 787.36 220.58 781.02Z" fill="#2980B9"/>
<path d="M299.58 815.19C285.9 815.19 275.23 810.82 267.57 802.07C259.91 793.32 256.08 781.82 256.08 767.55V763.67C256.08 749.99 260.03 738.67 267.92 729.72C275.82 720.77 285.46 716.29 296.85 716.29C309.59 716.29 319.14 720.25 325.52 728.18C331.89 736.11 335.08 746.64 335.08 759.8V768.96H274.14L273.88 769.4C273.88 778.97 275.99 786.73 280.22 792.69C284.45 798.65 290.91 801.63 299.59 801.63C305.46 801.63 310.61 800.79 315.05 799.12C319.48 797.45 323.28 795.14 326.45 792.21L333.23 803.48C329.82 806.77 325.33 809.54 319.76 811.8C314.17 814.06 307.44 815.19 299.58 815.19ZM296.85 729.94C290.8 729.94 285.8 732.27 281.83 736.94C277.87 741.61 275.45 747.58 274.56 754.86L274.74 755.3H317.72V753.89C317.72 746.96 316.02 741.24 312.61 736.72C309.2 732.2 303.95 729.94 296.85 729.94Z" fill="#2980B9"/>
<path d="M370.03 718.05L371.26 730.55C374.37 726.03 378.32 722.52 383.11 720.03C387.89 717.53 393.46 716.29 399.8 716.29C406.14 716.29 411.59 717.76 416.14 720.69C420.69 723.63 424.11 728.03 426.4 733.9C429.45 728.44 433.43 724.14 438.33 721C443.23 717.86 448.97 716.29 455.55 716.29C465.24 716.29 472.9 719.62 478.54 726.29C484.18 732.95 486.99 742.98 486.99 756.36V813.34H469.64V756.19C469.64 746.8 468.02 740.15 464.8 736.24C461.57 732.34 456.76 730.38 450.36 730.38C444.43 730.38 439.63 732.44 435.96 736.55C432.29 740.66 430.13 745.86 429.49 752.14V752.85V813.35H412.05V756.2C412.05 747.28 410.39 740.74 407.07 736.61C403.75 732.47 398.98 730.4 392.76 730.4C387.48 730.4 383.13 731.49 379.73 733.66C376.32 735.83 373.71 738.89 371.89 742.82V813.36H354.54V718.07H370.03V718.05Z" fill="#2980B9"/>
<path d="M630.79 756.63H576.72V813.34H559.37V685.12H639.77V698.77H576.72V742.98H630.79V756.63Z" fill="#2980B9"/>
<path d="M675.27 693.66H657.92V675.96H675.27V693.66ZM675.27 813.34H657.92V718.05H675.27V813.34Z" fill="#F39476"/>
<path d="M720.71 813.34H703.36V675.96H720.71V813.34Z" fill="#2980B9"/>
<path d="M805.96 813.34C805.37 810.46 804.92 807.92 804.59 805.72C804.27 803.52 804.08 801.3 804.02 799.07C800.79 803.65 796.58 807.48 791.38 810.56C786.18 813.64 780.59 815.18 774.6 815.18C764.68 815.18 757.12 812.64 751.92 807.56C746.72 802.48 744.13 795.48 744.13 786.56C744.13 777.46 747.81 770.34 755.18 765.2C762.55 760.06 772.54 757.49 785.17 757.49H804.02V748.07C804.02 742.49 802.32 738.07 798.91 734.82C795.5 731.56 790.69 729.93 784.47 729.93C778.83 729.93 774.28 731.34 770.82 734.16C767.36 736.98 765.62 740.35 765.62 744.29L749.15 744.47L748.97 743.94C748.56 737.01 751.8 730.67 758.7 724.92C765.6 719.17 774.51 716.29 785.43 716.29C796.23 716.29 804.92 719.04 811.5 724.52C818.08 730.01 821.36 737.92 821.36 748.25V794.13C821.36 797.54 821.54 800.82 821.89 803.99C822.24 807.16 822.89 810.27 823.83 813.32H805.96V813.34ZM777.16 800.66C783.44 800.66 789.11 799.05 794.16 795.82C799.21 792.59 802.5 788.89 804.02 784.72V769.22H784.56C777.57 769.22 771.98 770.98 767.78 774.5C763.58 778.02 761.48 782.16 761.48 786.92C761.48 791.15 762.8 794.49 765.44 796.96C768.09 799.43 771.99 800.66 777.16 800.66Z" fill="#2980B9"/>
<path d="M675.27 718.1H657.92V813.39H675.27V718.1Z" fill="#2980B9"/>
<path d="M547.57 190.61H451.06C353.32 190.61 273.36 270.58 273.36 368.31V464.82C273.36 562.56 353.33 642.52 451.06 642.52H547.57C645.31 642.52 725.27 562.55 725.27 464.82V368.31C725.27 270.57 645.31 190.61 547.57 190.61ZM578.13 450.87C578.13 477.89 556.02 500 529 500H462.47C435.45 500 413.34 477.89 413.34 450.87V384.34C413.34 357.32 435.45 335.21 462.47 335.21H529C556.02 335.21 578.13 357.32 578.13 384.34V450.87Z" fill="url(#paint0_linear)"/>
<path d="M435.23 307.32H448.73C476.55 307.32 499.32 330.09 499.32 357.91V371.41C499.32 399.23 476.55 422 448.73 422H435.23C407.41 422 384.64 399.23 384.64 371.41V357.91C384.64 330.08 407.4 307.32 435.23 307.32Z" fill="#F39476"/>
<path d="M455.78 422L499.32 366.63V422H455.78Z" fill="#F39476"/>
<path d="M454.86 422L499.32 365.46V366.63L455.78 422H454.86Z" fill="#F39476"/>
<path d="M453.94 422L499.32 364.29V365.46L454.86 422H453.94Z" fill="#F39476"/>
<path d="M453.01 422L499.32 363.11V364.29L453.94 422H453.01Z" fill="#F39476"/>
<path d="M452.09 422L499.32 361.94V363.11L453.01 422H452.09Z" fill="#F39476"/>
<path d="M451.17 422L499.32 360.76V361.94L452.09 422H451.17Z" fill="#F39476"/>
<path d="M450.24 422L499.32 359.59V360.76L451.17 422H450.24Z" fill="#F39476"/>
<path d="M449.32 422L499.32 358.41V359.59L450.24 422H449.32Z" fill="#F39476"/>
<path d="M448.4 422L499.32 357.24V358.41L449.32 422H448.4Z" fill="#F39476"/>
<path d="M447.47 422L499.32 356.07V357.24L448.4 422H447.47Z" fill="#F39476"/>
<path d="M446.55 422L499.32 354.89V356.07L447.47 422H446.55Z" fill="#F39476"/>
<path d="M445.63 422L499.32 353.72V354.89L446.55 422H445.63Z" fill="#F39476"/>
<path d="M444.7 422L499.32 352.54V353.72L445.63 422H444.7Z" fill="#F39476"/>
<path d="M443.78 422L499.32 351.37V352.54L444.7 422H443.78Z" fill="#F39476"/>
<path d="M442.86 422L499.32 350.2V351.37L443.78 422H442.86Z" fill="#F39476"/>
<path d="M441.93 422L499.32 349.02V350.2L442.86 422H441.93Z" fill="#F39476"/>
<path d="M441.01 422L499.32 347.85V349.02L441.93 422H441.01Z" fill="#F39476"/>
<path d="M440.09 422L499.32 346.67V347.85L441.01 422H440.09Z" fill="#F39476"/>
<path d="M439.16 422L499.32 345.5V346.67L440.09 422H439.16Z" fill="#F39476"/>
<path d="M438.24 422L499.32 344.32V345.5L439.16 422H438.24Z" fill="#F39476"/>
<path d="M437.32 422L499.32 343.15V344.32L438.24 422H437.32Z" fill="#F39476"/>
<path d="M436.39 422L499.32 341.98V343.15L437.32 422H436.39Z" fill="#F39476"/>
<path d="M435.47 422L499.32 340.8V341.98L436.39 422H435.47Z" fill="#F39476"/>
<path d="M434.55 422L499.32 339.63V340.8L435.47 422H434.55Z" fill="#F39476"/>
<path d="M433.62 422L499.32 338.45V339.63L434.55 422H433.62Z" fill="#F39476"/>
<path d="M432.7 422L499.32 337.28V338.45L433.62 422H432.7Z" fill="#F39476"/>
<path d="M431.78 422L499.32 336.1V337.28L432.7 422H431.78Z" fill="#F39476"/>
<path d="M430.85 422L499.32 334.93V336.1L431.78 422H430.85Z" fill="#F39476"/>
<path d="M429.93 422L499.32 333.76V334.93L430.85 422H429.93Z" fill="#F39476"/>
<path d="M429.01 422L499.32 332.58V333.76L429.93 422H429.01Z" fill="#F39476"/>
<path d="M428.08 422L499.32 331.41V332.58L429.01 422H428.08Z" fill="#F39476"/>
<path d="M427.16 422L499.32 330.23V331.41L428.08 422H427.16Z" fill="#F39476"/>
<path d="M426.24 422L499.32 329.06V330.23L427.16 422H426.24Z" fill="#F39476"/>
<path d="M425.31 422L499.32 327.89V329.06L426.24 422H425.31Z" fill="#F39476"/>
<path d="M424.39 422L499.32 326.71V327.89L425.31 422H424.39Z" fill="#F39476"/>
<path d="M423.47 422L499.32 325.54V326.71L424.39 422H423.47Z" fill="#F39476"/>
<path d="M422.54 422L499.32 324.36V325.54L423.47 422H422.54Z" fill="#F39476"/>
<path d="M421.62 422L499.32 323.19V324.36L422.54 422H421.62Z" fill="#F39476"/>
<path d="M420.7 422L499.02 322.39L499.32 322.63V323.19L421.62 422H420.7Z" fill="#F39476"/>
<path d="M419.77 422L498.45 321.95L499.02 322.39L420.7 422H419.77Z" fill="#F39476"/>
<path d="M418.85 422L497.88 321.5L498.45 321.95L419.77 422H418.85Z" fill="#F39476"/>
<path d="M417.93 422L497.31 321.05L497.88 321.5L418.85 422H417.93Z" fill="#F39476"/>
<path d="M417 422L496.73 320.6L497.31 321.05L417.93 422H417Z" fill="#F39476"/>
<path d="M416.08 422L496.16 320.15L496.73 320.6L417 422H416.08Z" fill="#F39476"/>
<path d="M415.16 422L495.59 319.7L496.16 320.15L416.08 422H415.16Z" fill="#F39476"/>
<path d="M414.23 422L495.02 319.25L495.59 319.7L415.16 422H414.23Z" fill="#F39476"/>
<path d="M413.31 422L494.45 318.8L495.02 319.25L414.23 422H413.31Z" fill="#F39476"/>
<path d="M412.39 422L493.88 318.36L494.45 318.8L413.31 422H412.39Z" fill="#F39476"/>
<path d="M411.46 422L493.31 317.91L493.88 318.36L412.39 422H411.46Z" fill="#F39476"/>
<path d="M410.54 422L492.74 317.46L493.31 317.91L411.46 422H410.54Z" fill="#F39476"/>
<path d="M409.62 422L492.17 317.01L492.74 317.46L410.54 422H409.62Z" fill="#F39476"/>
<path d="M408.69 422L491.6 316.56L492.17 317.01L409.62 422H408.69Z" fill="#F39476"/>
<path d="M407.77 422L491.03 316.11L491.6 316.56L408.69 422H407.77Z" fill="#F39476"/>
<path d="M406.85 422L490.46 315.66L491.03 316.11L407.77 422H406.85Z" fill="#F39476"/>
<path d="M405.92 422L489.89 315.22L490.46 315.66L406.85 422H405.92Z" fill="#F39476"/>
<path d="M405 422L489.32 314.77L489.89 315.22L405.92 422H405Z" fill="#F39476"/>
<path d="M404.11 422L404.09 421.98L488.75 314.32L489.32 314.77L405 422H404.11Z" fill="#F39476"/>
<path d="M488.169 313.855L403.514 421.519L404.088 421.971L488.743 314.306L488.169 313.855Z" fill="#F39476"/>
<path d="M487.597 313.405L402.942 421.069L403.516 421.521L488.171 313.856L487.597 313.405Z" fill="#F39476"/>
<path d="M487.026 312.955L402.371 420.62L402.945 421.071L487.6 313.407L487.026 312.955Z" fill="#F39476"/>
<path d="M486.463 312.512L401.808 420.176L402.381 420.627L487.036 312.963L486.463 312.512Z" fill="#F39476"/>
<path d="M485.891 312.062L401.236 419.726L401.81 420.177L486.465 312.513L485.891 312.062Z" fill="#F39476"/>
<path d="M485.32 311.612L400.665 419.276L401.239 419.727L485.894 312.063L485.32 311.612Z" fill="#F39476"/>
<path d="M484.749 311.162L400.094 418.826L400.668 419.277L485.323 311.613L484.749 311.162Z" fill="#F39476"/>
<path d="M484.178 310.712L399.523 418.376L400.096 418.827L484.751 311.163L484.178 310.712Z" fill="#F39476"/>
<path d="M483.606 310.262L398.951 417.926L399.525 418.377L484.18 310.713L483.606 310.262Z" fill="#F39476"/>
<path d="M483.035 309.812L398.38 417.477L398.954 417.928L483.609 310.264L483.035 309.812Z" fill="#F39476"/>
<path d="M482.472 309.368L397.817 417.033L398.39 417.484L483.045 309.82L482.472 309.368Z" fill="#F39476"/>
<path d="M481.9 308.919L397.245 416.583L397.819 417.034L482.474 309.37L481.9 308.919Z" fill="#F39476"/>
<path d="M481.329 308.469L396.674 416.133L397.248 416.584L481.903 308.92L481.329 308.469Z" fill="#F39476"/>
<path d="M480.758 308.019L396.103 415.683L396.677 416.134L481.332 308.47L480.758 308.019Z" fill="#F39476"/>
<path d="M480.187 307.569L395.532 415.233L396.105 415.684L480.76 308.02L480.187 307.569Z" fill="#F39476"/>
<path d="M395.53 415.25L394.96 414.8L479.48 307.32H479.84L480.19 307.59L395.53 415.25Z" fill="#F39476"/>
<path d="M394.96 414.8L394.39 414.35L478.56 307.32H479.48L394.96 414.8Z" fill="#F39476"/>
<path d="M394.39 414.35L393.82 413.91L477.63 307.32H478.56L394.39 414.35Z" fill="#F39476"/>
<path d="M393.82 413.91L393.25 413.46L476.71 307.32H477.63L393.82 413.91Z" fill="#F39476"/>
<path d="M393.25 413.46L392.68 413.01L475.79 307.32H476.71L393.25 413.46Z" fill="#F39476"/>
<path d="M392.68 413.01L392.11 412.56L474.86 307.32H475.79L392.68 413.01Z" fill="#F39476"/>
<path d="M392.11 412.56L391.54 412.11L473.94 307.32H474.86L392.11 412.56Z" fill="#F39476"/>
<path d="M391.54 412.11L390.97 411.66L473.02 307.32H473.94L391.54 412.11Z" fill="#F39476"/>
<path d="M390.97 411.66L390.4 411.21L472.09 307.32H473.02L390.97 411.66Z" fill="#F39476"/>
<path d="M390.4 411.21L389.83 410.76L471.17 307.32H472.09L390.4 411.21Z" fill="#F39476"/>
<path d="M389.83 410.76L389.26 410.32L470.25 307.32H471.17L389.83 410.76Z" fill="#F39476"/>
<path d="M389.26 410.32L388.68 409.87L469.32 307.32H470.25L389.26 410.32Z" fill="#F39476"/>
<path d="M388.68 409.87L388.11 409.42L468.4 307.32H469.32L388.68 409.87Z" fill="#F39476"/>
<path d="M388.11 409.42L387.54 408.97L467.48 307.32H468.4L388.11 409.42Z" fill="#F39476"/>
<path d="M387.54 408.97L386.97 408.52L466.55 307.32H467.48L387.54 408.97Z" fill="#F39476"/>
<path d="M386.97 408.52L386.4 408.07L465.63 307.32H466.55L386.97 408.52Z" fill="#F39476"/>
<path d="M386.4 408.07L385.83 407.62L464.71 307.32H465.63L386.4 408.07Z" fill="#F39476"/>
<path d="M385.83 407.62L385.26 407.18L463.78 307.32H464.71L385.83 407.62Z" fill="#F39476"/>
<path d="M385.26 407.18L384.69 406.73L462.86 307.32H463.78L385.26 407.18Z" fill="#F39476"/>
<path d="M384.69 406.73L384.64 406.69V405.62L461.94 307.32H462.86L384.69 406.73Z" fill="#F39476"/>
<path d="M384.64 404.45L461.01 307.32H461.94L384.64 405.62V404.45Z" fill="#F39476"/>
<path d="M384.64 403.27L460.09 307.32H461.01L384.64 404.45V403.27Z" fill="#F39476"/>
<path d="M384.64 402.1L459.17 307.32H460.09L384.64 403.27V402.1Z" fill="#F39476"/>
<path d="M384.64 400.92L458.24 307.32H459.17L384.64 402.1V400.92Z" fill="#F39476"/>
<path d="M384.64 399.75L457.32 307.32H458.24L384.64 400.92V399.75Z" fill="#F39476"/>
<path d="M384.64 398.57L456.4 307.32H457.32L384.64 399.75V398.57Z" fill="#F39476"/>
<path d="M384.64 397.4L455.47 307.32H456.4L384.64 398.57V397.4Z" fill="#F39476"/>
<path d="M384.64 396.23L454.55 307.32H455.47L384.64 397.4V396.23Z" fill="#F39476"/>
<path d="M384.64 395.05L453.63 307.32H454.55L384.64 396.23V395.05Z" fill="#F39476"/>
<path d="M384.64 393.88L452.7 307.32H453.63L384.64 395.05V393.88Z" fill="#F39476"/>
<path d="M384.64 392.7L451.78 307.32H452.7L384.64 393.88V392.7Z" fill="#F39476"/>
<path d="M384.64 391.53L450.86 307.32H451.78L384.64 392.7V391.53Z" fill="#F39476"/>
<path d="M384.64 390.36L449.93 307.32H450.86L384.64 391.53V390.36Z" fill="#F39476"/>
<path d="M384.64 389.18L449.01 307.32H449.93L384.64 390.36V389.18Z" fill="#F39476"/>
<path d="M384.64 388.01L448.09 307.32H449.01L384.64 389.18V388.01Z" fill="#F39476"/>
<path d="M384.64 386.83L447.16 307.32H448.09L384.64 388.01V386.83Z" fill="#F39476"/>
<path d="M384.64 385.66L446.24 307.32H447.16L384.64 386.83V385.66Z" fill="#F39476"/>
<path d="M384.64 384.48L445.32 307.32H446.24L384.64 385.66V384.48Z" fill="#F39476"/>
<path d="M384.64 383.31L444.39 307.32H445.32L384.64 384.48V383.31Z" fill="#F39476"/>
<path d="M384.64 382.14L443.47 307.32H444.39L384.64 383.31V382.14Z" fill="#F39476"/>
<path d="M384.64 380.96L442.55 307.32H443.47L384.64 382.14V380.96Z" fill="#F39476"/>
<path d="M384.64 379.79L441.62 307.32H442.55L384.64 380.96V379.79Z" fill="#F39476"/>
<path d="M384.64 378.61L440.7 307.32H441.62L384.64 379.79V378.61Z" fill="#F39476"/>
<path d="M384.64 377.44L439.78 307.32H440.7L384.64 378.61V377.44Z" fill="#F39476"/>
<path d="M384.64 376.26L438.85 307.32H439.78L384.64 377.44V376.26Z" fill="#F39476"/>
<path d="M384.64 375.09L437.93 307.32H438.85L384.64 376.26V375.09Z" fill="#F39476"/>
<path d="M384.64 373.92L437.01 307.32H437.93L384.64 375.09V373.92Z" fill="#F39476"/>
<path d="M384.64 372.74L436.08 307.32H437.01L384.64 373.92V372.74Z" fill="#F39476"/>
<path d="M384.64 371.57L435.16 307.32H436.08L384.64 372.74V371.57Z" fill="#F39476"/>
<path d="M384.64 370.39L434.24 307.32H435.16L384.64 371.57V370.39Z" fill="#F39476"/>
<path d="M384.64 369.22L433.31 307.32H434.24L384.64 370.39V369.22Z" fill="#F39476"/>
<path d="M384.64 368.04L432.39 307.32H433.31L384.64 369.22V368.04Z" fill="#F39476"/>
<path d="M384.64 366.87L431.47 307.32H432.39L384.64 368.04V366.87Z" fill="#F39476"/>
<path d="M384.64 365.7L430.54 307.32H431.47L384.64 366.87V365.7Z" fill="#F39476"/>
<path d="M384.64 364.52L429.62 307.32H430.54L384.64 365.7V364.52Z" fill="#F39476"/>
<path d="M384.64 363.35L428.7 307.32H429.62L384.64 364.52V363.35Z" fill="#F39476"/>
<path d="M384.64 362.17L427.77 307.32H428.7L384.64 363.35V362.17Z" fill="#F39476"/>
<path d="M384.64 361L426.85 307.32H427.77L384.64 362.17V361Z" fill="#F39476"/>
<path d="M384.64 359.83L425.93 307.32H426.85L384.64 361V359.83Z" fill="#F39476"/>
<path d="M384.64 358.65L425 307.32H425.93L384.64 359.83V358.65Z" fill="#F39476"/>
<path d="M384.64 357.48L424.08 307.32H425L384.64 358.65V357.48Z" fill="#F39476"/>
<path d="M384.64 356.3L423.16 307.32H424.08L384.64 357.48V356.3Z" fill="#F39476"/>
<path d="M384.64 355.13L422.23 307.32H423.16L384.64 356.3V355.13Z" fill="#F39476"/>
<path d="M384.64 353.95L421.31 307.32H422.23L384.64 355.13V353.95Z" fill="#F39476"/>
<path d="M384.64 352.78L420.39 307.32H421.31L384.64 353.95V352.78Z" fill="#F39476"/>
<path d="M384.64 351.61L419.46 307.32H420.39L384.64 352.78V351.61Z" fill="#F39476"/>
<path d="M384.64 350.43L418.54 307.32H419.46L384.64 351.61V350.43Z" fill="#F39476"/>
<path d="M384.64 349.26L417.62 307.32H418.54L384.64 350.43V349.26Z" fill="#F39476"/>
<path d="M384.64 348.08L416.69 307.32H417.62L384.64 349.26V348.08Z" fill="#F39476"/>
<path d="M384.64 346.91L415.77 307.32H416.69L384.64 348.08V346.91Z" fill="#F39476"/>
<path d="M384.64 345.73L414.85 307.32H415.77L384.64 346.91V345.73Z" fill="#F39476"/>
<path d="M384.64 344.56L413.92 307.32H414.85L384.64 345.73V344.56Z" fill="#F39476"/>
<path d="M384.64 343.39L413 307.32H413.92L384.64 344.56V343.39Z" fill="#F39476"/>
<path d="M384.64 342.21L412.08 307.32H413L384.64 343.39V342.21Z" fill="#F39476"/>
<path d="M384.64 341.04L411.15 307.32H412.08L384.64 342.21V341.04Z" fill="#F39476"/>
<path d="M384.64 339.86L410.23 307.32H411.15L384.64 341.04V339.86Z" fill="#F39476"/>
<path d="M384.64 338.69L409.31 307.32H410.23L384.64 339.86V338.69Z" fill="#F39476"/>
<path d="M384.64 337.52L408.38 307.32H409.31L384.64 338.69V337.52Z" fill="#F39476"/>
<path d="M384.64 336.34L407.46 307.32H408.38L384.64 337.52V336.34Z" fill="#F39476"/>
<path d="M384.64 335.17L406.54 307.32H407.46L384.64 336.34V335.17Z" fill="#F39476"/>
<path d="M384.64 333.99L405.61 307.32H406.54L384.64 335.17V333.99Z" fill="#F39476"/>
<path d="M384.64 332.82L404.69 307.32H405.61L384.64 333.99V332.82Z" fill="#F39476"/>
<path d="M384.64 331.64L403.77 307.32H404.69L384.64 332.82V331.64Z" fill="#F39476"/>
<path d="M384.64 330.47L402.84 307.32H403.77L384.64 331.64V330.47Z" fill="#F39476"/>
<path d="M384.64 329.3L401.92 307.32H402.84L384.64 330.47V329.3Z" fill="#F39476"/>
<path d="M384.64 328.12L401 307.32H401.92L384.64 329.3V328.12Z" fill="#F39476"/>
<path d="M384.64 326.95L400.07 307.32H401L384.64 328.12V326.95Z" fill="#F39476"/>
<path d="M400.07 307.32L384.64 326.95V307.32H400.07Z" fill="#F39476"/>
</g>
<defs>
<linearGradient id="paint0_linear" x1="355.904" y1="303.796" x2="711.147" y2="583.133" gradientUnits="userSpaceOnUse">
<stop stop-color="#2980B9"/>
<stop offset="1" stop-color="#3498DB"/>
</linearGradient>
<clipPath id="clip0">
<rect width="1000" height="1000" fill="white"/>
</clipPath>
</defs>
</svg>
