<svg width="25" height="24" viewBox="0 0 25 24" fill="none" xmlns="http://www.w3.org/2000/svg">
<path d="M14.6347 0H9.48394C4.26751 0 0 4.23777 0 9.41668V14.5309C0 19.7104 4.26804 23.9476 9.48394 23.9476H14.6347C19.8512 23.9476 24.1187 19.7099 24.1187 14.5309V9.41668C24.1187 4.23724 19.8512 0 14.6347 0ZM16.2657 13.7917C16.2657 15.2235 15.0857 16.3952 13.6436 16.3952H10.0929C8.65083 16.3952 7.47081 15.2235 7.47081 13.7917V10.2661C7.47081 8.8343 8.65083 7.66264 10.0929 7.66264H13.6436C15.0857 7.66264 16.2657 8.8343 16.2657 10.2661V13.7917Z" fill="url(#paint0_linear)"/>
<path d="M9.74782 11.8028H8.21294C7.3649 11.8028 6.67114 11.109 6.67114 10.261V8.72609C6.67114 7.87805 7.3649 7.1843 8.21294 7.1843H9.74782C10.5959 7.1843 11.2896 7.87805 11.2896 8.72609V10.261C11.2896 11.109 10.5959 11.8028 9.74782 11.8028Z" fill="#F39476"/>
<defs>
<linearGradient id="paint0_linear" x1="4.4054" y1="5.99794" x2="23.2616" y2="20.931" gradientUnits="userSpaceOnUse">
<stop stop-color="white"/>
<stop offset="1" stop-color="white"/>
</linearGradient>
</defs>
</svg>
