<svg width="169" height="93" viewBox="0 0 169 93" fill="none" xmlns="http://www.w3.org/2000/svg">
<path d="M156.27 71.9616H143.186V78.5036H156.27V71.9616Z" fill="#4D4D4D"/>
<path d="M145.989 71.9616H144.588V77.1017H145.989V71.9616Z" fill="#E6E6E6"/>
<path d="M154.868 71.9616H153.466V77.1017H154.868V71.9616Z" fill="#E6E6E6"/>
<path d="M158.139 79.2886C158.139 80.4054 157.237 81.3073 156.12 81.3073H143.803C142.686 81.3073 141.784 80.4054 141.784 79.2886V79.1204C141.784 78.0036 142.686 77.1017 143.803 77.1017H156.12C157.237 77.1017 158.139 78.0036 158.139 79.1204V79.2886Z" fill="#333333"/>
<path d="M160.475 69.1579H119.822V72.8962H160.475V69.1579Z" fill="#333333"/>
<path d="M47.8507 35.5275L53.2338 36.7939V65.8869" stroke="#333333" stroke-width="3" stroke-miterlimit="10" stroke-linecap="round" stroke-linejoin="round"/>
<path d="M127.766 80.3727H25.5614C19.2437 80.3727 14.7952 78.0456 14.7952 71.728C14.7952 65.4103 19.2437 63.0832 25.5614 63.0832H53.4862L57.8226 66.4243C59.6544 66.4243 127.766 66.3636 127.766 66.3636V80.3727Z" fill="#333333"/>
<path d="M46.8835 25.7006H46.6312C46.5658 25.7006 46.505 25.7146 46.4349 25.7193L46.4162 25.7006H14.1223L8.10836 35.7051L2.4589 52.9806L2.40283 78.9709H23.0941C23.0941 68.2233 32.9631 67.7561 32.9631 67.7561H50.6638V35.9107V30.7379V29.6024C50.6638 27.6258 48.8555 25.7006 46.8835 25.7006Z" fill="#CCCCCC"/>
<path d="M44.1219 28.9716V44.8685C44.1219 44.8685 40.8977 49.9292 11.5149 53.6301C11.5149 53.6301 12.7766 35.5135 22.4213 28.9716H44.1219Z" fill="#333333"/>
<path d="M43.6546 55.6067H38.5145V64.0178H43.6546V55.6067Z" fill="#4D4D4D"/>
<path d="M43.6546 61.2141H38.5145V64.0178H43.6546V61.2141Z" fill="#666666"/>
<path d="M17.0195 75.9943C17.0195 76.8634 16.3139 77.569 15.4447 77.569H9.24857C8.37942 77.569 7.67383 76.8634 7.67383 75.9943V75.8728C7.67383 75.0036 8.37942 74.298 9.24857 74.298H15.4447C16.3139 74.298 17.0195 75.0036 17.0195 75.8728V75.9943Z" fill="white"/>
<path d="M17.0194 76.1858C17.0194 77.1017 16.454 77.569 15.1596 77.569H11.412V74.298H15.1596C16.1409 74.1999 17.0194 74.7466 17.0194 75.6625V76.1858Z" fill="#F7931E"/>
<path d="M14.1222 26.0277C14.1222 26.0277 2.40274 35.1677 2.45882 54.5132C2.45882 54.5132 4.31393 54.6394 4.42141 53.7282C6.21577 38.3873 12.6923 30.7332 14.1222 26.0277Z" fill="#333333"/>
<path d="M3.93557 75.2653C3.93557 75.7606 3.53371 76.1672 3.03372 76.1672H2.96362C2.4683 76.1672 2.06177 75.7653 2.06177 75.2653V62.1113C2.06177 61.616 2.46363 61.2094 2.96362 61.2094H3.03372C3.52904 61.2094 3.93557 61.6113 3.93557 62.1113V75.2653Z" fill="#999999"/>
<path d="M24.9633 80.6671C24.9633 81.5363 24.2577 82.2418 23.3885 82.2418H2.23929C1.37015 82.2418 0.664551 81.5363 0.664551 80.6671V80.5456C0.664551 79.6765 1.37015 78.9709 2.23929 78.9709H23.3885C24.2577 78.9709 24.9633 79.6765 24.9633 80.5456V80.6671Z" fill="#666666"/>
<path d="M14.0383 25.7006C14.0383 25.7006 17.6551 7.82231 50.4584 7.90642C50.4584 7.90642 51.3836 20.9249 49.9537 23.3642C49.9537 23.3642 48.8603 25.7006 47.5145 25.7006C46.1687 25.7006 14.0383 25.7006 14.0383 25.7006Z" fill="#E6E6E6"/>
<path d="M50.9629 81.4568C50.9629 87.8212 45.8041 92.98 39.4397 92.98C33.0753 92.98 27.9165 87.8212 27.9165 81.4568C27.9165 75.0924 33.0753 69.9336 39.4397 69.9336C45.8041 69.9289 50.9629 75.0924 50.9629 81.4568Z" fill="#333333"/>
<path d="M46.9254 81.4568C46.9254 85.5923 43.575 88.9427 39.4395 88.9427C35.304 88.9427 31.9536 85.5923 31.9536 81.4568C31.9536 77.3214 35.304 73.9709 39.4395 73.9709C43.575 73.9663 46.9254 77.3214 46.9254 81.4568Z" fill="#CCCCCC"/>
<path d="M41.6265 81.4568C41.6265 82.6624 40.6452 83.6437 39.4396 83.6437C38.234 83.6437 37.2527 82.6624 37.2527 81.4568C37.2527 80.2512 38.234 79.2699 39.4396 79.2699C40.6452 79.2699 41.6265 80.2466 41.6265 81.4568Z" fill="#E6E6E6" stroke="#333333" stroke-miterlimit="10"/>
<path d="M41.3181 75.2326H37.5798V76.1672H41.3181V75.2326Z" fill="#333333"/>
<path d="M41.3181 86.9147H37.5798V87.8493H41.3181V86.9147Z" fill="#333333"/>
<path d="M45.0563 79.9054H44.1217V83.1764H45.0563V79.9054Z" fill="#333333"/>
<path d="M34.3088 79.9054H33.3743V83.1764H34.3088V79.9054Z" fill="#333333"/>
<path d="M118.887 75.6999H67.9532V78.9709H118.887V75.6999Z" fill="#808080"/>
<path d="M139.111 81.4568C139.111 87.8212 133.952 92.98 127.588 92.98C121.224 92.98 116.065 87.8212 116.065 81.4568C116.065 75.0924 121.224 69.9336 127.588 69.9336C133.952 69.9289 139.111 75.0924 139.111 81.4568Z" fill="#333333"/>
<path d="M135.074 81.4568C135.074 85.5923 131.724 88.9427 127.588 88.9427C123.453 88.9427 120.102 85.5923 120.102 81.4568C120.102 77.3214 123.453 73.9709 127.588 73.9709C131.724 73.9663 135.074 77.3214 135.074 81.4568Z" fill="#CCCCCC"/>
<path d="M129.775 81.4568C129.775 82.6624 128.798 83.6437 127.588 83.6437C126.378 83.6437 125.401 82.6624 125.401 81.4568C125.401 80.2512 126.382 79.2699 127.588 79.2699C128.798 79.2699 129.775 80.2466 129.775 81.4568Z" fill="#E6E6E6" stroke="#333333" stroke-miterlimit="10"/>
<path d="M129.167 75.2326H125.896V76.1672H129.167V75.2326Z" fill="#333333"/>
<path d="M129.167 86.9147H125.896V87.8493H129.167V86.9147Z" fill="#333333"/>
<path d="M133.373 79.9054H132.438V83.1764H133.373V79.9054Z" fill="#333333"/>
<path d="M122.625 79.9054H121.691V83.1764H122.625V79.9054Z" fill="#333333"/>
<path d="M17.2017 29.3033C17.2017 29.3033 8.37473 42.2844 8.84202 55.1861V69.7607L22.8091 69.742C22.8091 69.742 25.3324 64.4897 33.4632 64.4897" stroke="#999999" stroke-miterlimit="10" stroke-linecap="round" stroke-linejoin="round"/>
<path d="M17.4867 56.6347C17.4867 57.0973 17.1082 57.4758 16.6456 57.4758H12.2531C11.7905 57.4758 11.412 57.0973 11.412 56.6347V56.4478C11.412 55.9852 11.7905 55.6067 12.2531 55.6067H16.6456C17.1082 55.6067 17.4867 55.9852 17.4867 56.4478V56.6347Z" fill="#666666"/>
<path d="M74.028 74.298H56.7385V81.7745H74.028V74.298Z" fill="#666666"/>
<path d="M168.419 76.1671H160.812L157.447 66.3542H168.419V76.1671Z" fill="#D9D9D9"/>
<path d="M28.6874 28.9716L25.1781 51.504C30.0098 50.56 33.6499 49.4946 36.3836 48.6021L39.4536 28.9716H28.6874Z" fill="#4D4D4D"/>
<path d="M168.419 0H57.6731V69.6252H168.419V0Z" fill="#D9D9D9"/>
<path d="M91.7849 60.1861C91.7849 62.0459 90.2803 63.5505 88.4205 63.5505H66.6451C64.7853 63.5505 63.2806 62.0459 63.2806 60.1861V7.56999C63.2806 5.7102 64.7853 4.20555 66.6451 4.20555H88.4205C90.2803 4.20555 91.7849 5.7102 91.7849 7.56999V60.1861Z" fill="#E6E6E6"/>
<path d="M125.896 60.1861C125.896 62.0459 124.392 63.5505 122.532 63.5505H100.757C98.8969 63.5505 97.3922 62.0459 97.3922 60.1861V7.56999C97.3922 5.7102 98.8969 4.20555 100.757 4.20555H122.532C124.392 4.20555 125.896 5.7102 125.896 7.56999V60.1861Z" fill="#E6E6E6"/>
<path d="M160.943 60.1861C160.943 62.0459 159.438 63.5505 157.578 63.5505H135.803C133.943 63.5505 132.438 62.0459 132.438 60.1861V7.56999C132.438 5.7102 133.943 4.20555 135.803 4.20555H157.578C159.438 4.20555 160.943 5.7102 160.943 7.56999V60.1861Z" fill="#E6E6E6"/>
<path d="M162.812 65.4197H61.4115V67.7561H162.812V65.4197Z" fill="#E6E6E6"/>
<path d="M63.7479 2.37381C63.7479 2.86913 63.346 3.27099 62.8507 3.27099H59.9723C59.4769 3.27099 59.0751 2.86913 59.0751 2.37381V2.29904C59.0751 1.80372 59.4769 1.40186 59.9723 1.40186H62.8507C63.346 1.40186 63.7479 1.80372 63.7479 2.29904V2.37381Z" fill="#F7931E"/>
<path d="M166.55 2.37381C166.55 2.86913 166.148 3.27099 165.653 3.27099H162.774C162.279 3.27099 161.877 2.86913 161.877 2.37381V2.29904C161.877 1.80372 162.279 1.40186 162.774 1.40186H165.653C166.148 1.40186 166.55 1.80372 166.55 2.29904V2.37381Z" fill="#F7931E"/>
<path d="M105.803 73.3635H91.7847V77.569H105.803V73.3635Z" fill="#B3B3B3"/>
<path d="M105.803 77.569H91.7847V81.7745H105.803V77.569Z" fill="#333333"/>
<path d="M167.485 72.9336C167.485 73.4289 167.083 73.8307 166.587 73.8307H162.312C161.816 73.8307 161.415 73.4289 161.415 72.9336V72.8635C161.415 72.3681 161.816 71.9663 162.312 71.9663H166.587C167.083 71.9663 167.485 72.3681 167.485 72.8635V72.9336Z" fill="#C1272D"/>
<path d="M168.886 80.6344C168.886 81.0082 168.587 81.3073 168.214 81.3073H161.148C160.774 81.3073 160.475 81.0035 160.475 80.6344V75.9055C160.475 75.5317 160.774 75.2326 161.148 75.2326H168.214C168.587 75.2326 168.886 75.5363 168.886 75.9055V80.6344Z" fill="#333333"/>
</svg>
